<?xml version="1.0" encoding="utf-8"?>
<!-- Generator: Adobe Illustrator 18.0.0, SVG Export Plug-In . SVG Version: 6.00 Build 0)  -->
<!DOCTYPE svg PUBLIC "-//W3C//DTD SVG 1.1//EN" "http://www.w3.org/Graphics/SVG/1.1/DTD/svg11.dtd">
<svg version="1.1" id="Capa_1" xmlns="http://www.w3.org/2000/svg" xmlns:xlink="http://www.w3.org/1999/xlink" x="0px" y="0px"
	 viewBox="89.9 0 662 595" enable-background="new 89.9 0 662 595" xml:space="preserve">
<g>
	<g>
		<defs>
			<rect id="SVGID_1_" x="89.9" y="-1.7" width="662" height="597.2"/>
		</defs>
		<clipPath id="SVGID_2_">
			<use xlink:href="#SVGID_1_"  overflow="visible"/>
		</clipPath>
		<g clip-path="url(#SVGID_2_)">
			<path fill="#DE4243" d="M89.9,0l77.8,209.7c24.8-10.8,54.5-5.7,65.1,0L310.5,0H89.9z"/>
			<path fill="#FFFFFF" d="M167.8,209.7l32.5,87.7l32.5-87.7C222.2,204,192.5,198.8,167.8,209.7z"/>
			<g>
				<path fill="#3C3C3B" d="M200.3,297.4L122.5,87.7c-24.8,10.8-54.5,5.7-65.1,0l-77.8,209.7H200.3z"/>
				<path fill="#FFFFFF" d="M122.5,87.7L89.9,0L57.4,87.7C68,93.4,97.7,98.6,122.5,87.7z"/>
			</g>
			<g>
				<path fill="#00AFA6" d="M421.1,297.4L343.2,87.7c-24.8,10.8-54.5,5.7-65.1,0l-77.8,209.7H421.1z"/>
				<path fill="#FFFFFF" d="M343.5,87.7L310.7,0l-32.5,87.7C288.8,93.4,318.5,98.6,343.5,87.7z"/>
			</g>
			<path fill="#00AFA6" d="M531.2,0L609,209.7c24.8-10.8,54.5-5.7,65.1,0L752,0H531.2z"/>
			<path fill="#FFFFFF" d="M609,209.7l32.5,87.7l32.5-87.7C663.5,204,633.8,198.8,609,209.7z"/>
			<g>
				<path fill="#3C3C3B" d="M310.5,0l77.8,209.7c24.8-10.8,54.5-5.7,65.1,0L531.2,0H310.5z"/>
				<path fill="#FFFFFF" d="M388.3,209.7l32.5,87.7l32.5-87.7C442.8,204,413,198.8,388.3,209.7z"/>
			</g>
			<path fill="#DE4243" d="M641.6,297.4L563.8,87.7c-24.8,10.8-54.5,5.7-65.1,0l-77.8,209.7H641.6z"/>
			<path fill="#FFFFFF" d="M563.8,87.7L531.2,0l-32.5,87.7C509.3,93.4,539,98.6,563.8,87.7z"/>
			<g>
				<path fill="#3C3C3B" d="M862.1,297.4L784.3,87.7c-24.8,10.8-54.5,5.7-65.1,0l-77.8,209.7H862.1z"/>
				<path fill="#FFFFFF" d="M784.5,87.7L751.7,0l-32.5,87.7C729.8,93.4,759.5,98.6,784.5,87.7z"/>
			</g>
			<path fill="#DE4243" d="M89.9,297.4l77.8,209.7c24.8-10.8,54.5-5.7,65.1,0l77.8-209.7L89.9,297.4L89.9,297.4z"/>
			<path fill="#FFFFFF" d="M167.8,507.3l32.5,87.7l32.5-87.7C222.2,501.6,192.5,496.4,167.8,507.3z"/>
			<g>
				<path fill="#3C3C3B" d="M200.3,595l-77.8-209.7c-24.8,10.8-54.5,5.7-65.1,0L-20.4,595H200.3z"/>
				<path fill="#FFFFFF" d="M122.5,385.4l-32.5-88l-32.5,87.7C68,390.8,97.7,396.2,122.5,385.4z"/>
			</g>
			<g>
				<path fill="#00AFA6" d="M421.1,595l-77.8-209.7c-24.8,10.8-54.5,5.7-65.1,0L200.3,595H421.1z"/>
				<path fill="#FFFFFF" d="M343.5,385.4l-32.5-87.7l-32.5,87.7C288.8,390.8,318.5,396.2,343.5,385.4z"/>
			</g>
			<path fill="#00AFA6" d="M531.2,297.4L609,507.1c24.8-10.8,54.5-5.7,65.1,0L752,297.4L531.2,297.4L531.2,297.4z"/>
			<path fill="#FFFFFF" d="M609,507.3l32.5,87.7l32.5-87.7C663.5,501.6,633.8,496.4,609,507.3z"/>
			<g>
				<path fill="#3C3C3B" d="M310.5,297.4l77.8,209.7c24.8-10.8,54.5-5.7,65.1,0l77.8-209.7L310.5,297.4L310.5,297.4z"/>
				<path fill="#FFFFFF" d="M388.3,507.3l32.5,87.7l32.5-87.7C442.8,501.6,413,496.4,388.3,507.3z"/>
			</g>
			<path fill="#DE4243" d="M641.6,595l-77.8-209.7c-24.8,10.8-54.5,5.7-65.1,0L420.8,595H641.6z"/>
			<path fill="#FFFFFF" d="M563.8,385.4l-32.5-87.7l-32.5,87.7C509.3,390.8,539,396.2,563.8,385.4z"/>
			<g>
				<path fill="#3C3C3B" d="M862.1,595l-77.8-209.7c-24.8,10.8-54.5,5.7-65.1,0L641.3,595H862.1z"/>
				<path fill="#FFFFFF" d="M784.5,385.4L752,297.6l-32.5,87.7C729.8,390.8,759.5,396.2,784.5,385.4z"/>
			</g>
		</g>
	</g>
</g>
</svg>
